<?xml version="1.0" standalone="no"?>
<!DOCTYPE svg PUBLIC "-//W3C//DTD SVG 20010904//EN"
 "http://www.w3.org/TR/2001/REC-SVG-20010904/DTD/svg10.dtd">
<svg version="1.0" xmlns="http://www.w3.org/2000/svg"
 width="192.000000pt" height="192.000000pt" viewBox="0 0 192.000000 192.000000"
 preserveAspectRatio="xMidYMid meet">
<metadata>
Created by potrace 1.14, written by Peter Selinger 2001-2017
</metadata>
<g transform="translate(0.000000,192.000000) scale(0.100000,-0.100000)"
fill="#000000" stroke="none">
<path d="M1690 1597 c-3 -3 -55 -11 -115 -17 -61 -7 -118 -16 -127 -21 -21
-11 -23 -40 -6 -57 15 -15 74 -16 83 -2 3 6 28 10 54 10 l48 0 8 -92 c4 -51 9
-163 11 -248 2 -113 7 -165 18 -192 9 -21 20 -38 25 -38 15 0 18 95 10 270 -5
91 -10 196 -11 234 l-3 70 37 9 c41 10 77 42 62 57 -11 11 -87 24 -94 17z"/>
<path d="M67 1583 c-20 -19 12 -67 38 -57 17 7 282 -98 337 -132 79 -50 103
-132 67 -229 -39 -106 -102 -189 -205 -272 -36 -29 -38 -32 -23 -48 16 -16 19
-16 53 0 25 12 36 24 36 39 0 12 14 35 31 52 41 39 111 146 140 214 18 41 24
74 24 126 0 123 -41 158 -310 263 -120 48 -173 60 -188 44z"/>
<path d="M1222 1497 c-52 -56 -91 -213 -78 -318 9 -75 54 -151 102 -174 79
-37 186 2 232 84 22 39 29 71 15 71 -5 0 -28 -23 -52 -51 -69 -80 -136 -99
-190 -54 -47 41 -64 98 -59 208 3 76 9 103 32 150 29 61 44 69 64 37 14 -22
42 -17 42 9 0 56 -68 80 -108 38z"/>
<path d="M167 1424 c-10 -10 -9 -66 2 -100 5 -16 14 -113 20 -215 11 -191 24
-261 51 -267 14 -2 16 11 13 95 -7 212 -25 439 -36 463 -12 25 -37 37 -50 24z"/>
<path d="M699 1194 c-5 -15 -12 -53 -16 -86 -6 -56 -8 -60 -42 -74 -20 -9 -54
-19 -76 -22 -30 -6 -41 -13 -43 -28 -4 -31 23 -50 52 -36 13 6 43 13 67 17 37
6 47 3 63 -14 25 -27 67 -27 94 2 25 26 72 124 72 150 0 33 -20 13 -58 -57
-42 -78 -64 -98 -84 -77 -11 11 -10 14 1 19 8 3 25 15 38 28 19 19 23 34 23
83 0 49 -4 65 -26 90 -32 38 -51 39 -65 5z m47 -21 c20 -27 17 -70 -8 -93 -33
-31 -41 -25 -34 28 9 57 15 82 23 82 3 0 12 -8 19 -17z"/>
<path d="M873 1194 c-3 -9 1 -28 9 -43 9 -14 28 -62 43 -106 32 -96 49 -125
74 -125 25 0 31 19 31 99 0 52 6 79 25 117 15 30 21 52 15 58 -15 15 -60 -22
-80 -66 -19 -43 -21 -43 -40 17 -7 22 -17 46 -23 53 -14 17 -46 15 -54 -4z"/>
</g>
</svg>
